<?xml version="1.0" encoding="UTF-8"?>
<svg width="280" height="349" version="1.1" viewBox="0 0 74.083 92.34" xmlns="http://www.w3.org/2000/svg">
<style>
:root {
    --logo-main: #0087FF;
    --logo-fade: rgba(0,135,255,0.4);
    --logo-BG: #FFFFFF
}
@media (prefers-color-scheme: dark) {
	:root {
        --logo-main: #99cfff;
        --logo-fade: rgba(153,207,255,0.4);
        --logo-BG: #000
    }
}

#bg {
    fill: var(--logo-BG);
}

#main, #key {
    fill: var(--logo-main);
}

#squares {
    fill: var(--logo-fade);
}

</style>

 <path id="bg" d="m3.6 3.91h44.386l22.414 20.826v24.899c0 26.166-21.414 32.228-33.117 38.409-12.815-5.8945-32.794-12.329-33.117-38.409z" />
 <path id="squares" d="m3.6 3.9062 0.55501 39.644h33.141l0.004134-39.644h-33.7zm33.71 39.645 0.002583 43.946c12.825-5.8796 32.762-17.077 33.127-43.157l0.010852-0.7891h-33.141z" />
 <path id="main" d="m0.92054 1.2599 0.0336 2.68 0.56638 45.725c0.16983 13.713 5.7199 22.772 12.812 28.762 7.0923 5.99 15.578 9.1356 21.844 12.017l1.1875 0.54674 1.1545-0.61082c5.578-2.9461 14.124-6.0768 21.385-11.998 7.261-5.9214 13.142-14.945 13.142-28.75v-26.053l-24.019-22.319zm5.3578 5.2932h37.015v22.494h24.461v20.584c0 12.361-4.8255 19.452-11.197 24.648-5.9959 4.8898-13.349 7.8091-19.311 10.834-6.3238-2.855-13.656-5.7949-19.5-10.731-6.1816-5.2209-10.783-12.418-10.936-24.785zm42.308 1.5239 16.877 15.679h-16.877z" />
 <path id="key" d="m36.95 33.914a9.0172 9.0172 0 0 0-9.0171 9.0171 9.0172 9.0172 0 0 0 5.1181 8.1298l-3.1481 16.623h14.098l-3.1487-16.625a9.0172 9.0172 0 0 0 5.115-8.1282 9.0172 9.0172 0 0 0-9.0176-9.0171z" />
</svg>
