<?xml version="1.0" encoding="utf-8"?>
<!-- Generator: Adobe Illustrator 26.0.1, SVG Export Plug-In . SVG Version: 6.00 Build 0)  -->
<svg version="1.1" id="Capa_1" xmlns="http://www.w3.org/2000/svg" xmlns:xlink="http://www.w3.org/1999/xlink" x="0px" y="0px"
	 viewBox="0 0 256.1 72" style="enable-background:new 0 0 256.1 72;" xml:space="preserve">
<style type="text/css">
	.st0{fill:#1D1D1B;}
	.st1{fill:#7636D2;}
	.st2{fill:#FFFFFF;}
	.st3{fill:#46FCD6;}
	.st4{fill:#5E4F9C;}
	.st5{fill:#73C4B8;}
	.st6{fill:#773DBD;}
	.st7{fill:#2ED9C3;}
</style>
<g>
	<path class="st3" d="M61.8,52.9L61.8,52.9c-0.1,0.3-0.2,0.5-0.3,0.8c-0.1,0.3-0.3,0.4-0.4,0.7l0.4,0.4c0.2-0.2,0.4-0.4,0.5-0.5
		c0.2-0.2,0.3-0.4,0.4-0.6c0.1-0.2,0.1-0.4,0.1-0.6v-0.6h-0.8V52.9z"/>
	<polygon class="st3" points="17.4,53 19.7,53 19.7,59.7 20.6,59.7 20.6,53 22.9,53 22.9,52.2 17.4,52.2 	"/>
	<polygon class="st3" points="94.9,52.2 92.6,58.4 90.4,52.2 89.4,52.2 92.2,59.7 93.1,59.7 95.8,52.2 	"/>
	<path class="st3" d="M106.1,52.9c0.3,0,0.4,0,0.7,0.1c0.3,0.1,0.4,0.2,0.6,0.3c0.2,0.2,0.4,0.3,0.4,0.5c0.1,0.2,0.3,0.4,0.3,0.7
		h0.9c-0.1-0.4-0.2-0.7-0.4-1s-0.4-0.5-0.7-0.8c-0.3-0.2-0.5-0.4-0.9-0.4c-0.4-0.1-0.7-0.2-1.1-0.2c-0.6,0-1.2,0.2-1.7,0.4
		c-0.5,0.3-0.9,0.7-1.2,1.3c-0.3,0.6-0.4,1.2-0.4,2s0.2,1.4,0.4,2c0.3,0.5,0.7,1,1.2,1.3c0.5,0.3,1.1,0.4,1.7,0.4
		c0.4,0,0.7-0.1,1.1-0.2c0.4-0.1,0.6-0.3,0.9-0.4c0.3-0.2,0.4-0.4,0.7-0.8c0.2-0.3,0.3-0.6,0.4-1h-0.9c-0.1,0.3-0.2,0.4-0.3,0.7
		c-0.1,0.2-0.3,0.4-0.4,0.5c-0.2,0.2-0.4,0.3-0.6,0.3c-0.3,0.1-0.4,0.1-0.7,0.1c-0.4,0-0.9-0.1-1.2-0.4c-0.4-0.3-0.6-0.5-0.9-1
		c-0.2-0.4-0.4-1-0.4-1.6c0-0.6,0.1-1.2,0.4-1.6c0.3-0.5,0.5-0.9,0.9-1.2v0C105.2,53,105.6,52.9,106.1,52.9z"/>
	<rect x="110.6" y="52.2" class="st3" width="0.9" height="7.5"/>
	<polygon class="st3" points="35.2,58.1 31.2,52.2 30.3,52.2 30.3,59.7 31.2,59.7 31.2,53.8 31.2,53.8 35.3,59.7 36.1,59.7 
		36.1,52.2 35.2,52.2 	"/>
	<path class="st3" d="M98.5,52.2l-2.8,7.5h1l0.7-2.1h3l0.7,2.1h1l-2.8-7.5H98.5z M97.7,56.7l1.2-3.4H99l1.2,3.4H97.7z"/>
	<path class="st3" d="M87.2,52.6c-0.5-0.3-1.1-0.4-1.7-0.4s-1.2,0.2-1.7,0.4c-0.5,0.3-0.9,0.7-1.2,1.3c-0.3,0.5-0.4,1.2-0.4,2
		c0,0.8,0.2,1.4,0.4,2c0.3,0.5,0.7,1,1.2,1.3c0.5,0.3,1.1,0.4,1.7,0.4s1.2-0.2,1.7-0.4c0.5-0.3,0.9-0.7,1.2-1.3
		c0.3-0.5,0.4-1.2,0.4-2s-0.2-1.4-0.4-2C88.1,53.3,87.7,52.9,87.2,52.6z M87.7,57.5c-0.2,0.4-0.5,0.8-0.9,1
		c-0.4,0.3-0.8,0.4-1.2,0.4c-0.4,0-0.9-0.1-1.2-0.4c-0.4-0.3-0.6-0.5-0.9-1c-0.2-0.4-0.4-1-0.4-1.6c0-0.6,0.1-1.2,0.4-1.6
		c0.2-0.4,0.5-0.8,0.9-1c0.4-0.3,0.8-0.4,1.2-0.4c0.4,0,0.9,0.1,1.2,0.4c0.4,0.3,0.6,0.5,0.9,1c0.2,0.4,0.4,1,0.4,1.6
		C87.9,56.6,87.8,57.1,87.7,57.5z"/>
	<polygon class="st3" points="25.2,56.3 28.5,56.3 28.5,55.5 25.2,55.5 25.2,53 28.7,53 28.7,52.2 24.3,52.2 24.3,59.7 28.8,59.7 
		28.8,58.9 25.2,58.9 	"/>
	<polygon class="st3" points="79.7,58.1 75.6,52.2 74.8,52.2 74.8,59.7 75.6,59.7 75.6,53.8 75.7,53.8 79.8,59.7 80.6,59.7 
		80.6,52.2 79.7,52.2 	"/>
	<path class="st3" d="M13.8,52.2L11,59.7h1l0.7-2.1h3l0.7,2.1h1l-2.8-7.5H13.8z M13,56.7l1.2-3.4h0.1l1.2,3.4H13z"/>
	<rect x="64.2" y="52.2" class="st3" width="0.9" height="7.5"/>
	<polygon class="st3" points="39,56.3 42.3,56.3 42.3,55.5 39,55.5 39,53 42.5,53 42.5,52.2 38.1,52.2 38.1,59.7 42.6,59.7 
		42.6,58.9 39,58.9 	"/>
	<path class="st3" d="M118.1,52.6c-0.5-0.3-1.1-0.4-1.7-0.4s-1.2,0.2-1.7,0.4c-0.5,0.3-0.9,0.7-1.2,1.3c-0.3,0.6-0.4,1.2-0.4,2
		c0,0.8,0.2,1.4,0.4,2c0.3,0.5,0.7,1,1.2,1.3c0.5,0.3,1.1,0.4,1.7,0.4s1.2-0.2,1.7-0.4c0.5-0.3,0.9-0.7,1.2-1.3
		c0.3-0.5,0.4-1.2,0.4-2s-0.2-1.4-0.4-2S118.5,52.9,118.1,52.6z M118.4,57.5c-0.2,0.4-0.5,0.8-0.9,1c-0.4,0.3-0.8,0.4-1.2,0.4
		c-0.4,0-0.9-0.1-1.2-0.4c-0.4-0.3-0.6-0.5-0.9-1c-0.2-0.4-0.4-1-0.4-1.6c0-0.6,0.1-1.2,0.4-1.6c0.2-0.4,0.5-0.8,0.9-1
		c0.4-0.3,0.8-0.4,1.2-0.4c0.4,0,0.9,0.1,1.2,0.4c0.4,0.3,0.6,0.5,0.9,1c0.2,0.4,0.4,1,0.4,1.6C118.8,56.6,118.7,57.1,118.4,57.5z"
		/>
	<path class="st3" d="M58.7,52.6c-0.5-0.3-1.2-0.4-1.9-0.4h-2.4v7.5h2.3c0.7,0,1.4-0.2,2-0.4c0.5-0.3,0.9-0.7,1.2-1.2
		c0.3-0.5,0.4-1.2,0.4-2c0-0.8-0.2-1.4-0.4-2C59.6,53.4,59.2,52.9,58.7,52.6z M59.1,57.4L59.1,57.4c-0.2,0.4-0.5,0.8-0.9,1
		c-0.4,0.3-0.9,0.4-1.5,0.4h-1.3V53h1.4c0.6,0,1.1,0.1,1.4,0.4c0.4,0.3,0.7,0.5,0.9,1s0.3,1,0.3,1.5C59.4,56.5,59.4,57,59.1,57.4z"
		/>
	<path class="st3" d="M48.7,57.1h0.2c0,0.4-0.1,0.7-0.3,1c-0.2,0.3-0.4,0.5-0.7,0.6c-0.3,0.2-0.6,0.3-1.1,0.3s-0.8-0.1-1.1-0.3
		s-0.5-0.4-0.7-0.6c-0.2-0.3-0.3-0.6-0.3-1v-4.8h-0.9v4.9c0,0.5,0.1,1,0.4,1.3c0.3,0.4,0.5,0.7,1,1c0.4,0.3,1,0.4,1.5,0.4
		c0.6,0,1.1-0.1,1.5-0.4c0.4-0.3,0.8-0.5,1-1c0.3-0.4,0.4-0.9,0.4-1.3v-4.9h-0.9V57.1z"/>
	<polygon class="st3" points="72,58.1 71.9,58.1 67.8,52.2 67,52.2 67,59.7 67.9,59.7 67.9,53.8 68,53.8 72,59.7 72.9,59.7 
		72.9,52.2 72,52.2 	"/>
	<path class="st3" d="M213.3,56.5c0.4-0.2,0.6-0.4,0.8-0.8c0.2-0.4,0.3-0.7,0.3-1.2c0-0.4-0.1-0.8-0.3-1.2c-0.2-0.4-0.4-0.6-0.8-0.8
		c-0.4-0.2-0.9-0.3-1.4-0.3h-2.5v7.5h0.9v-2.9h1.6c0.1,0,0.1,0,0.2,0l1.6,2.9h1.1l-1.7-3.1C213.1,56.6,213.2,56.5,213.3,56.5z
		 M211.9,55.9L211.9,55.9l-1.6,0V53h1.6c0.4,0,0.7,0.1,1,0.2c0.3,0.1,0.4,0.3,0.5,0.5c0.1,0.3,0.2,0.4,0.2,0.8
		c0,0.3-0.1,0.5-0.2,0.8c-0.1,0.2-0.3,0.4-0.5,0.5C212.6,55.8,212.2,55.9,211.9,55.9z"/>
	<path class="st3" d="M204.9,52.9c0.3,0,0.4,0,0.7,0.1c0.3,0.1,0.4,0.2,0.6,0.3c0.2,0.2,0.4,0.3,0.4,0.5c0.1,0.2,0.3,0.4,0.3,0.7
		h0.9c-0.1-0.4-0.2-0.7-0.4-1c-0.2-0.3-0.4-0.5-0.7-0.8c-0.3-0.2-0.5-0.4-0.9-0.4c-0.4-0.1-0.7-0.2-1.1-0.2c-0.6,0-1.2,0.2-1.7,0.4
		c-0.5,0.3-0.9,0.7-1.2,1.3c-0.3,0.6-0.4,1.2-0.4,2s0.2,1.4,0.4,2c0.3,0.5,0.7,1,1.2,1.3c0.5,0.3,1.1,0.4,1.7,0.4
		c0.4,0,0.7-0.1,1.1-0.2c0.4-0.1,0.6-0.3,0.9-0.4c0.3-0.2,0.4-0.4,0.7-0.8c0.2-0.3,0.3-0.6,0.4-1H207c-0.1,0.3-0.2,0.4-0.3,0.7
		c-0.1,0.2-0.3,0.4-0.4,0.5c-0.2,0.2-0.4,0.3-0.6,0.3c-0.3,0.1-0.4,0.1-0.7,0.1c-0.4,0-0.9-0.1-1.2-0.4c-0.4-0.3-0.6-0.5-0.9-1
		c-0.2-0.4-0.4-1-0.4-1.6c0-0.6,0.1-1.2,0.4-1.6c0.2-0.5,0.5-0.9,0.9-1.2v0C204,53,204.5,52.9,204.9,52.9z"/>
	<path class="st3" d="M198.8,52.6c-0.5-0.3-1.1-0.4-1.7-0.4c-0.6,0-1.2,0.2-1.7,0.4c-0.5,0.3-0.9,0.7-1.2,1.3
		c-0.3,0.5-0.4,1.2-0.4,2c0,0.8,0.2,1.4,0.4,2c0.3,0.5,0.7,1,1.2,1.3c0.5,0.3,1.1,0.4,1.7,0.4c0.6,0,1.2-0.2,1.7-0.4
		c0.5-0.3,0.9-0.7,1.2-1.3c0.3-0.5,0.4-1.2,0.4-2s-0.2-1.4-0.4-2C199.6,53.4,199.2,52.9,198.8,52.6z M199.2,57.5
		c-0.2,0.4-0.5,0.8-0.9,1c-0.4,0.3-0.8,0.4-1.2,0.4c-0.4,0-0.9-0.1-1.2-0.4c-0.4-0.3-0.6-0.5-0.9-1c-0.3-0.4-0.4-1-0.4-1.6
		c0-0.6,0.1-1.2,0.4-1.6c0.2-0.4,0.5-0.8,0.9-1c0.4-0.3,0.8-0.4,1.2-0.4c0.4,0,0.9,0.1,1.2,0.4c0.4,0.3,0.6,0.5,0.9,1
		c0.2,0.4,0.4,1,0.4,1.6C199.5,56.6,199.3,57.1,199.2,57.5z"/>
	<path class="st3" d="M218.4,52.2l-2.8,7.5h1l0.7-2.1h3l0.7,2.1h1l-2.8-7.5H218.4z M217.7,56.7l1.2-3.4h0.1l1.2,3.4H217.7z"/>
	<polygon class="st3" points="188.6,58.3 188.5,58.3 186,52.2 184.9,52.2 184.9,59.7 185.7,59.7 185.7,54 185.8,54 188.1,59.7 
		188.9,59.7 191.2,54 191.3,54 191.3,59.7 192.2,59.7 192.2,52.2 191.1,52.2 	"/>
	<path class="st3" d="M234.7,52.9c0.3,0,0.4,0,0.7,0.1c0.3,0.1,0.4,0.2,0.6,0.3c0.2,0.2,0.4,0.3,0.4,0.5c0.1,0.2,0.3,0.4,0.3,0.7
		h0.9c-0.1-0.4-0.2-0.7-0.4-1c-0.2-0.3-0.4-0.5-0.7-0.8c-0.3-0.2-0.5-0.4-0.9-0.4c-0.4-0.1-0.7-0.2-1.1-0.2c-0.6,0-1.2,0.2-1.7,0.4
		c-0.5,0.3-0.9,0.7-1.2,1.3c-0.3,0.5-0.4,1.2-0.4,2s0.2,1.4,0.4,2c0.3,0.5,0.7,1,1.2,1.3c0.5,0.3,1.1,0.4,1.7,0.4
		c0.4,0,0.7-0.1,1.1-0.2c0.4-0.1,0.6-0.3,0.9-0.4c0.3-0.2,0.4-0.4,0.7-0.8c0.2-0.3,0.3-0.6,0.4-1h-0.9c-0.1,0.3-0.2,0.4-0.3,0.7
		c-0.1,0.2-0.3,0.4-0.4,0.5c-0.2,0.2-0.4,0.3-0.6,0.3c-0.3,0.1-0.4,0.1-0.7,0.1c-0.4,0-0.9-0.1-1.2-0.4c-0.4-0.3-0.6-0.5-0.9-1
		c-0.2-0.4-0.4-1-0.4-1.6c0-0.6,0.1-1.2,0.4-1.6c0.3-0.5,0.5-0.9,0.9-1.2v0C233.8,53,234.2,52.9,234.7,52.9z"/>
	<polygon class="st3" points="219.3,51.5 218.4,49.8 217.3,49.8 218.5,51.5 	"/>
	<path class="st3" d="M241.1,52.2l-2.8,7.5h1l0.7-2.1h3l0.7,2.1h1l-2.8-7.5H241.1z M240.3,56.7l1.2-3.4h0.1l1.2,3.4H240.3z"/>
	<polygon class="st3" points="178.9,59.7 183.4,59.7 183.4,58.9 179.8,58.9 179.8,56.3 183.1,56.3 183.1,55.5 179.8,55.5 179.8,53 
		183.4,53 183.4,52.2 178.9,52.2 	"/>
	<rect x="228.9" y="52.2" class="st3" width="0.9" height="7.5"/>
	<polygon class="st3" points="221.9,53 224.2,53 224.2,59.7 225.1,59.7 225.1,53 227.4,53 227.4,52.2 221.9,52.2 	"/>
	<polygon class="st3" points="117.8,49.8 116.8,49.8 116,51.5 116.8,51.5 	"/>
	<path class="st3" d="M136,53.4c0.4-0.3,0.8-0.4,1.2-0.4c0.3,0,0.5,0,0.7,0.1c0.3,0.1,0.4,0.2,0.6,0.4c0.2,0.2,0.4,0.3,0.4,0.5
		c0.1,0.2,0.3,0.4,0.4,0.6h0.9c-0.1-0.4-0.2-0.7-0.4-1s-0.4-0.5-0.7-0.8c-0.3-0.2-0.5-0.4-0.9-0.5c-0.4-0.1-0.7-0.2-1.1-0.2
		c-0.4,0-0.9,0.1-1.3,0.3c-0.4,0.2-0.7,0.4-1.1,0.8c-0.3,0.4-0.5,0.7-0.7,1.2c-0.2,0.4-0.3,1-0.3,1.6c0,0.8,0.2,1.4,0.4,2
		c0.3,0.5,0.6,1,1.2,1.3c0.5,0.3,1.1,0.4,1.7,0.4c0.6,0,1.2-0.1,1.6-0.4s0.8-0.6,1.1-1.1c0.3-0.4,0.4-1,0.4-1.6v-0.8h-2.8v0.6h0.3h2
		c0,0.4-0.1,0.8-0.3,1.2c-0.2,0.4-0.4,0.6-0.8,0.8c-0.4,0.2-0.7,0.3-1.2,0.3s-0.9-0.1-1.2-0.4c-0.4-0.3-0.6-0.5-0.9-1
		c-0.3-0.4-0.4-1-0.4-1.6c0-0.6,0.1-1.2,0.4-1.6C135.3,54,135.6,53.6,136,53.4z"/>
	<polygon class="st3" points="149.8,52.2 144.2,52.2 144.2,53 146.6,53 146.6,59.7 147.5,59.7 147.5,53 149.8,53 	"/>
	<rect x="141.9" y="52.2" class="st3" width="0.9" height="7.5"/>
	<path class="st3" d="M128.2,52.6c-0.5-0.3-1.2-0.4-1.9-0.4H124v7.5h2.3c0.7,0,1.4-0.2,2-0.4c0.5-0.3,0.9-0.7,1.2-1.2
		c0.3-0.5,0.4-1.2,0.4-2c0-0.8-0.2-1.4-0.4-2C129.2,53.4,128.8,52.9,128.2,52.6z M128.7,57.4L128.7,57.4c-0.2,0.4-0.5,0.8-0.9,1
		c-0.4,0.3-0.9,0.4-1.5,0.4h-1.3V53h1.4c0.6,0,1.1,0.1,1.4,0.4c0.4,0.3,0.7,0.5,0.9,1c0.2,0.4,0.3,1,0.3,1.5
		C129,56.5,128.9,57,128.7,57.4z"/>
	<rect x="131.4" y="52.2" class="st3" width="0.9" height="7.5"/>
	<rect x="165.9" y="52.2" class="st3" width="0.9" height="7.5"/>
	<path class="st3" d="M175.7,52.6c-0.5-0.3-1.2-0.4-1.9-0.4h-2.4v7.5h2.3c0.7,0,1.4-0.2,2-0.4c0.5-0.3,0.9-0.7,1.2-1.2
		c0.3-0.5,0.4-1.2,0.4-2c0-0.8-0.2-1.4-0.4-2C176.6,53.4,176.3,52.9,175.7,52.6z M176.1,57.4L176.1,57.4c-0.2,0.4-0.5,0.8-0.9,1
		c-0.4,0.3-0.9,0.4-1.5,0.4h-1.3V53h1.4c0.6,0,1.1,0.1,1.4,0.4c0.4,0.3,0.7,0.5,0.9,1s0.3,1,0.3,1.5C176.5,56.5,176.4,57,176.1,57.4
		z"/>
	<path class="st3" d="M152.4,52.2l-2.8,7.5h1l0.7-2.1h3l0.7,2.1h1l-2.8-7.5H152.4z M151.6,56.7l1.2-3.4h0.1l1.2,3.4H151.6z"/>
	<polygon class="st3" points="158.2,52.2 157.3,52.2 157.3,59.7 161.6,59.7 161.6,58.9 158.2,58.9 	"/>
</g>
<path class="st3" d="M101.7,20.4h5.5v-5.5h-5.5V20.4z M96.2,14.9h5.5V9.4h-5.5V14.9z"/>
<path class="st3" d="M36.7,34.6v-0.7h-6.1v0.8c0,3.8-2.2,6.6-6.6,6.6c-4.4,0-7-2.9-7-7.5v-8c0-4.6,2.6-7.5,7-7.5
	c4.4,0,6.6,2.8,6.6,6.6v0.5h6.1v-0.3c0-7.7-4.6-12.4-12.6-12.4c-8.1,0-13.2,4.7-13.2,13.1v7.9c0,8.4,5.1,13.1,13.2,13.1
	C32.1,46.9,36.7,42.3,36.7,34.6 M54.1,37.1c0,3.1-2.3,5-5.6,5c-2.5,0-3.8-1.2-3.8-2.8c0-1.7,1.3-2.7,3.5-2.7h5.9V37.1z M59,46.3H63
	v-4.9h-1.9c-0.8,0-1.3-0.5-1.3-1.4v-8.6c0-5.8-3.8-8.9-9.9-8.9c-6,0-9.1,3-10.2,6.5l5.4,1.8c0.4-2.1,1.7-3.6,4.7-3.6
	c3,0,4.3,1.6,4.3,3.7v1.3h-6.3c-5.2,0-9,2.5-9,7.2s3.7,7.4,8.7,7.4c4.9,0,6.3-2.6,6.7-3.8h0.9v0C55.1,45,56.8,46.3,59,46.3 M82,46.3
	h5.9V32.4c0-5.7-3.6-9.7-9-9.7c-4.2,0-6,1.8-6.8,3.4h-0.8v-3h-5.8v23.2h5.9V34.5c0-4.3,2.1-6.8,5.7-6.8c3.2,0,4.9,1.7,4.9,5.2V46.3z
	 M157.5,34.9c0,4.5-2.8,6.9-6.4,6.9c-3.6,0-6.3-2.4-6.3-6.9v-0.5c0-4.5,2.7-6.9,6.3-6.9c3.6,0,6.4,2.4,6.4,6.9V34.9z M157.5,46.3
	h5.8V13.6h-5.9v12.2h-0.8c-1-1.6-3-3.3-7.2-3.3c-5.6,0-10.5,4.3-10.5,11.9v0.7c0,7.6,4.9,11.9,10.5,11.9c4.2,0,6.2-1.7,7.3-3.5h0.8
	V46.3z M179.1,28.2h2.9V23h-2.8c-2.1,0-3.8,0.8-4.5,2.7h-0.8v-2.6H168v23.2h5.9V33.1C173.9,29.8,176.1,28.2,179.1,28.2 M201.8,34.9
	c0,4.3-2.7,6.8-6.3,6.8c-3.6,0-6.3-2.4-6.3-6.8v-0.5c0-4.3,2.6-6.8,6.3-6.8c3.6,0,6.3,2.4,6.3,6.8V34.9z M207.7,35.1v-0.7
	c0-7.5-5.2-11.9-12.1-11.9c-6.9,0-12.1,4.4-12.1,11.9v0.7c0,7.5,5.2,11.9,12.1,11.9C202.5,46.9,207.7,42.5,207.7,35.1 M244.8,46.3
	V31c0-5.6-3.5-8.3-7.8-8.3c-3.5,0-5.3,1.5-6.3,3.5h-0.8c-1.1-2.1-2.9-3.5-6.3-3.5c-3.1,0-4.9,1.4-5.7,2.9h-0.8v-2.5h-5.8v23.2h5.9
	V32.6c0-3.2,1.5-4.9,4.2-4.9c2.3,0,3.7,1.3,3.7,3.8v14.8h5.9V32.6c0-3.2,1.5-4.9,4.2-4.9c2.3,0,3.7,1.3,3.7,3.8v14.8H244.8z"/>
<path class="st3" d="M130.9,34.7c0,4.3-2.7,6.8-6.2,6.8h-21c-3.6,0-6.2-2.4-6.2-6.8v-0.5c0-4.3,2.6-6.8,6.2-6.8h21
	c3.6,0,6.2,2.4,6.2,6.8V34.7z M136.8,34.9v-0.7c0-7.5-5.2-11.8-12.1-11.8h-21c-6.9,0-12.1,4.4-12.1,11.8v0.7
	c0,7.5,5.2,11.8,12.1,11.8h21C131.6,46.7,136.8,42.3,136.8,34.9"/>
</svg>
